# xmcd
#
# Track frame offsets: 
#        150
#        19706
#        37856
#        54624
#        71311
#        89483
#        108589
#        128716
#        145516
#        162161
#        194561
#        215961
#        228968
#        245641
#        268291
#
# Disc length: 3916 seconds
#
# Revision: 1
# Processed by: cddbd v1.5.2PL0 Copyright (c) Steve Scherf et al.
# Submitted via: ExactAudioCopyFreeDBPlugin 1.0
#
DISCID=d90f4a0f
DTITLE=Cr7z - An7ma
DYEAR=2013
DGENRE=Rap
TTITLE0=Weisser Sand
TTITLE1=Neue Welt
TTITLE2=Schmerzen
TTITLE3=Feuer im Glas
TTITLE4=Tageslicht feat. Jinx
TTITLE5=Drei Schwerter
TTITLE6=Weitsicht
TTITLE7=Montauk feat. Absztrakkt
TTITLE8=Zeitverlust
TTITLE9=Fallkurve
TTITLE10=Keshiki
TTITLE11=Mantis feat. Jamer$on
TTITLE12=Fragezeichen
TTITLE13=You
TTITLE14=Perfekter Kreis feat. Jenny Wall
EXTD=YEAR: 2013
EXTT0=
EXTT1=
EXTT2=
EXTT3=
EXTT4=
EXTT5=
EXTT6=
EXTT7=
EXTT8=
EXTT9=
EXTT10=
EXTT11=
EXTT12=
EXTT13=
EXTT14=
PLAYORDER=
